<svg xmlns="http://www.w3.org/2000/svg" fill="none" viewBox="0 0 177 43" height="43" width="177">
<path fill="white" d="M66.527 37.6069C66.527 38.0178 66.1776 38.3415 65.7635 38.3415C65.2976 38.3415 65 38.0427 65 37.6069C65 37.1586 65.3495 36.9096 65.7635 36.9096C66.2165 36.8971 66.527 37.196 66.527 37.6069Z"></path>
<path fill="white" d="M79.2339 32.4388C77.7458 32.4388 76.5941 33.435 76.5941 34.7175C76.5941 36.0001 77.7458 37.0336 79.2339 37.0336C79.9974 37.0336 80.7998 36.7348 81.3821 36.2242L82.2621 37.1083C81.4598 37.843 80.2692 38.2913 79.1176 38.2913C76.7882 38.2913 74.9766 36.7472 74.9766 34.7549C74.9766 32.7626 76.8141 31.2559 79.1563 31.2559C80.3081 31.2559 81.4598 31.7041 82.2232 32.3641L81.3433 33.3229C80.7998 32.8124 79.9974 32.4388 79.2339 32.4388Z"></path>
<path fill="white" d="M92.7197 31.3057V37.0585H96.1229V38.2788H91.1797V31.3555H92.7067V31.3057H92.7197Z"></path>
<path fill="white" d="M112.776 34.7676C112.776 36.7599 110.938 38.304 108.57 38.304C106.202 38.304 104.352 36.7599 104.352 34.7676C104.352 32.7753 106.189 31.2686 108.557 31.2686C110.925 31.2686 112.776 32.7753 112.776 34.7676ZM105.891 34.7676C105.891 36.0626 107.121 37.0837 108.57 37.0837C110.019 37.0837 111.21 36.0502 111.21 34.7676C111.21 33.4726 110.019 32.4515 108.57 32.4515C107.108 32.4764 105.891 33.4726 105.891 34.7676Z"></path>
<path fill="white" d="M125.106 37.1208C126.297 37.1208 127.059 36.4608 127.059 35.3526V31.3057H128.587V35.3526C128.587 37.1582 127.241 38.3038 125.106 38.3038C122.971 38.3038 121.586 37.1582 121.586 35.3526V31.3057H123.113V35.3526C123.113 36.4608 123.915 37.1208 125.106 37.1208Z"></path>
<path fill="white" d="M145.476 34.7674C145.476 36.797 143.716 38.229 141.296 38.229H138.035V31.3057H141.323C143.716 31.3057 145.476 32.7377 145.476 34.7674ZM143.91 34.8047C143.91 33.4474 142.798 32.4886 141.309 32.4886H139.549V37.0959H141.348C142.836 37.0834 143.91 36.1246 143.91 34.8047Z"></path>
<path fill="#BCBCBC" d="M71.7648 25.4779L71.9201 23.1244H69.2026L68.2449 25.4779H64.4922L71.3507 10.9961H75.4917L75.4141 25.4779H71.7648ZM72.6059 14.6072L70.3154 20.2854H72.1918L72.6059 14.6072Z"></path>
<path fill="#BCBCBC" d="M75.9453 25.4779L76.5924 22.7135L82.3381 13.8725H78.7406L79.4264 10.9961H87.2683L86.6602 13.611L80.7981 22.6015H84.6673L83.9427 25.4779H75.9453Z"></path>
<path fill="#BCBCBC" d="M86.6992 21.8294C86.6992 21.5679 86.738 21.2442 86.8157 20.9453L89.1837 10.9961H92.7425L90.2967 21.2442C90.2578 21.3936 90.219 21.6177 90.219 21.7921C90.219 22.452 90.7107 22.863 91.4096 22.863C92.1731 22.863 92.6777 22.4147 92.9366 21.2442L95.3823 10.9961H98.9797L96.534 21.0574C95.7705 24.3323 93.5836 25.7394 91.099 25.7394C88.6921 25.7394 86.6992 24.2327 86.6992 21.8294Z"></path>
<path fill="#BCBCBC" d="M103.744 25.4779L103.434 20.3974H102.593L101.363 25.4779H97.8047L101.286 10.9961H105.724C108.092 10.9961 109.788 12.6896 109.788 14.8687C109.788 17.1848 108.222 19.2518 106.837 19.7748L107.523 25.453H103.731L103.744 25.4779ZM104.042 17.521C105.271 17.521 105.996 16.3754 105.996 15.2049C105.996 14.2461 105.465 13.8725 104.806 13.8725H104.12L103.24 17.521H104.042Z"></path>
<path fill="#BCBCBC" d="M109.258 25.4779L112.739 10.9961H120.128L119.403 13.8725H115.573L114.926 16.7116H118.601L117.915 19.588H114.24L113.515 22.6513H117.384L116.699 25.5277H109.271V25.4779H109.258Z"></path>
<path fill="white" d="M119.711 25.4779L123.192 10.9961H127.67C130.31 10.9961 131.655 12.4655 131.655 14.1963C131.655 16.0766 130.348 18.0315 128.33 18.2432C129.675 18.5794 130.283 19.7499 130.283 20.8955C130.283 22.9999 128.898 25.4281 125.728 25.4281H119.711V25.4779ZM126.673 20.6589C126.673 19.9616 126.246 19.5507 125.443 19.5507H124.68L123.955 22.6139H124.952C125.987 22.6015 126.673 21.7547 126.673 20.6589ZM127.902 14.9061C127.902 14.2087 127.411 13.8725 126.596 13.8725H126.065L125.417 16.7116H126.297C127.295 16.6743 127.902 15.7528 127.902 14.9061Z"></path>
<path fill="white" d="M136.934 25.4779L136.624 20.3974H135.783L134.553 25.4779H131.008L134.489 10.9961H138.888C141.257 10.9961 142.952 12.6896 142.952 14.8687C142.952 17.1848 141.385 19.2518 140.002 19.7748L140.687 25.453H136.934V25.4779ZM137.245 17.521C138.474 17.521 139.199 16.3754 139.199 15.2049C139.199 14.2461 138.668 13.8725 138.008 13.8725H137.362L136.482 17.521H137.245Z"></path>
<path fill="white" d="M148.581 25.4779L148.737 23.1244H145.981L145.022 25.4779H141.27L148.128 10.9961H152.27L152.192 25.4779H148.581ZM149.422 14.6072L147.12 20.2854H148.996L149.422 14.6072Z"></path>
<path fill="white" d="M152.789 24.0086L154.82 21.5804C155.352 22.3524 156.387 22.8381 157.305 22.8381C158.147 22.8381 158.832 22.2528 158.832 21.294C158.832 19.7499 155.079 18.7911 155.079 15.6906C155.079 12.9635 157.383 10.7471 160.32 10.7471C161.77 10.7471 163.388 11.2576 164.307 12.2164L162.429 14.6819C161.899 14.0593 161.084 13.6484 160.243 13.6484C159.363 13.6484 158.858 14.3084 158.858 15.0057C158.858 16.6245 162.533 17.5086 162.533 20.6465C162.533 23.3735 160.424 25.6896 157.293 25.6896C155.364 25.7394 153.63 25.0047 152.789 24.0086Z"></path>
<path fill="white" d="M163.047 25.4779L166.528 10.9961H170.087L166.606 25.4779H163.047Z"></path>
<path fill="white" d="M168.875 25.4779L172.356 10.9961H175.915L173.12 22.6015H176.989L176.303 25.4779H168.875Z"></path>
<path fill="url(#paint0_linear_2923_4520)" d="M57.6732 34.3194C55.4862 34.3194 57.1814 34.3194 54.9944 34.3194C52.9239 34.3194 50.8534 34.3568 48.7571 34.3194C47.2689 34.3194 46.1172 33.6968 46.1172 32.1029C46.1172 30.5091 47.2689 29.9238 48.7571 29.9238C53.0016 29.9238 53.4287 29.9238 57.6732 29.9238"></path>
<path fill="url(#paint1_linear_2923_4520)" d="M51.3998 21.2071C49.2128 21.2444 50.481 21.2071 48.2941 21.2071C46.1071 21.2071 43.9331 21.2444 41.7461 21.2071C40.2191 21.1697 39.1451 20.435 39.2227 18.891C39.2616 17.4963 40.258 16.7492 41.6685 16.7492C46.1071 16.7119 47.1423 16.7119 51.581 16.7492"></path>
<path fill="url(#paint2_linear_2923_4520)" d="M44.9268 27.7322C42.7398 27.7322 40.5658 27.7322 38.3788 27.7322C36.9683 27.7322 35.933 27.1096 35.8554 25.6652C35.7778 24.0837 36.8906 23.3864 38.4176 23.3864C42.6621 23.3491 46.9584 23.3491 51.2029 23.3864C52.7299 23.3864 53.8816 24.009 53.8428 25.6029C53.8428 27.1843 52.6523 27.7447 51.1253 27.782C49.0935 27.7322 47.036 27.7322 44.9268 27.7322Z"></path>
<path fill="url(#paint3_linear_2923_4520)" d="M41.4489 34.2818C40.1419 34.095 39.3008 33.435 39.3008 32.1774C39.3008 30.8201 40.1419 29.9609 41.5654 29.9982C42.8724 30.0356 43.6747 30.8076 43.7135 32.0653C43.7005 33.4724 42.8205 34.1448 41.4489 34.2818Z"></path>
<path fill="url(#paint4_linear_2923_4520)" d="M56.5633 24.5194C55.5669 23.0501 54.2341 21.8298 52.6941 20.9083C52.6941 20.7215 52.6941 20.5721 52.6941 20.3978C52.6941 17.1976 51.3483 14.2838 49.1743 12.2168C46.9873 10.1124 43.9722 8.8298 40.6723 8.8298C39.8312 8.8298 38.9901 8.90451 38.1878 9.09129C37.8772 9.16601 37.5407 9.24071 37.2302 9.31542C35.4702 7.50986 33.3997 6.00317 31.0704 4.93229C28.3918 3.66217 25.3637 2.96484 22.1803 2.96484C18.0004 2.96484 14.1054 4.18516 10.8444 6.23976C7.77745 8.19474 5.33168 10.8844 3.72705 14.0846C3.64941 14.1219 3.57176 14.1219 3.53295 14.1219H8.35977C9.58912 12.279 11.2326 10.6976 13.1089 9.47731C15.7101 7.82118 18.8157 6.86237 22.1803 6.86237C24.7426 6.86237 27.1624 7.41026 29.2976 8.40643C31.5233 9.43995 33.4774 10.9467 35.0432 12.7896L36.0008 13.9725L37.4113 13.3873C37.9031 13.1631 38.4466 13.0137 38.9771 12.9141C39.5077 12.802 40.0512 12.7647 40.6206 12.7647C42.8463 12.7647 44.8263 13.6114 46.2886 15.006C47.7508 16.4007 48.6178 18.3183 48.6178 20.4601C48.6178 20.6842 48.6178 20.9083 48.5791 21.12C48.5402 21.3317 48.5402 21.5683 48.5013 21.78L48.2296 23.2493L49.6789 23.8719C51.0894 24.4572 52.3188 25.4907 53.1212 26.711C53.9234 27.894 54.3893 29.326 54.3893 30.9074C54.3893 33.0491 53.5093 34.9543 52.0601 36.324C50.6107 37.7187 48.6178 38.5654 46.3921 38.5654H22.1156H14.7266V40.9562H0.867188C2.89886 41.915 5.15051 42.4629 7.5704 42.4629H22.1932H46.4697C49.7566 42.4629 52.8236 41.1679 55.0104 39.076C57.1974 36.9715 58.5303 34.1076 58.5303 30.8949C58.5173 28.5041 57.7927 26.325 56.5633 24.5194Z"></path>
<path fill="#87C540" d="M9.31641 42.4256L24.5216 8.49365L29.5683 10.5233L14.415 42.4256"></path>
<path fill="#87C540" d="M30.5629 0.536621L31.5982 6.42647L32.5946 12.3288L26.7713 10.187L20.9609 8.09506L25.7749 4.33451L30.5629 0.536621Z" clip-rule="evenodd" fill-rule="evenodd"></path>
<path fill="#FEDA46" d="M5.25391 42.2509L14.3252 19.999L19.3849 21.9914L10.9219 42.3879C8.08788 42.5 5.71976 42.3879 5.25391 42.2509Z"></path>
<path fill="#FEDA46" d="M20.3802 12.0303L21.3766 17.8952L22.3731 23.7851L16.5498 21.6806L10.7266 19.5887L15.5533 15.7908L20.3802 12.0303Z" clip-rule="evenodd" fill-rule="evenodd"></path>
<path fill="#2FA6DF" d="M0.0117188 40.4457L3.99741 31.8662L9.05717 33.8585L5.26558 42.2637C3.33744 41.9524 1.61634 41.3547 0.0117188 40.4457Z"></path>
<path fill="#2FA6DF" d="M10.0406 23.8965L11.037 29.7863L12.0335 35.6886L6.24903 33.5842L0.425781 31.4549L5.25261 27.6944L10.0406 23.8965Z" clip-rule="evenodd" fill-rule="evenodd"></path>
<defs>
<linearGradient gradientUnits="userSpaceOnUse" y2="32.13" x2="57.6732" y1="32.13" x1="46.1172" id="paint0_linear_2923_4520">
<stop stop-color="#BCBCBC" offset="0.0532"></stop>
<stop stop-color="#BCBCBC" offset="0.2599"></stop>
<stop stop-color="#EDEDED" offset="0.6885"></stop>
<stop stop-color="white" offset="0.8842"></stop>
</linearGradient>
<linearGradient gradientUnits="userSpaceOnUse" y2="18.9724" x2="51.581" y1="18.9724" x1="39.2188" id="paint1_linear_2923_4520">
<stop stop-color="#BCBCBC" offset="0.0532"></stop>
<stop stop-color="#BCBCBC" offset="0.2599"></stop>
<stop stop-color="#EDEDED" offset="0.6885"></stop>
<stop stop-color="white" offset="0.8842"></stop>
</linearGradient>
<linearGradient gradientUnits="userSpaceOnUse" y2="25.5703" x2="53.8438" y1="25.5703" x1="35.8515" id="paint2_linear_2923_4520">
<stop stop-color="#BCBCBC" offset="0.0532"></stop>
<stop stop-color="#BCBCBC" offset="0.2599"></stop>
<stop stop-color="#EDEDED" offset="0.6885"></stop>
<stop stop-color="white" offset="0.8842"></stop>
</linearGradient>
<linearGradient gradientUnits="userSpaceOnUse" y2="32.1394" x2="43.7135" y1="32.1394" x1="39.3008" id="paint3_linear_2923_4520">
<stop stop-color="#BCBCBC" offset="0.0532"></stop>
<stop stop-color="#BCBCBC" offset="0.2599"></stop>
<stop stop-color="#EDEDED" offset="0.6885"></stop>
<stop stop-color="white" offset="0.8842"></stop>
</linearGradient>
<linearGradient gradientUnits="userSpaceOnUse" y2="22.7139" x2="58.5303" y1="22.7139" x1="0.867188" id="paint4_linear_2923_4520">
<stop stop-color="#BCBCBC" offset="0.0532"></stop>
<stop stop-color="#BCBCBC" offset="0.2599"></stop>
<stop stop-color="#EDEDED" offset="0.6885"></stop>
<stop stop-color="white" offset="0.8842"></stop>
</linearGradient>
</defs>
</svg>
